<svg xmlns="http://www.w3.org/2000/svg" viewBox="0 0 600 180" width="600" height="180">
<style>@import url('https://fonts.googleapis.com/css2?family=Dancing+Script:wght@700&amp;display=swap');</style>
<defs><clipPath id="reveal"><rect x="0" y="0" width="0" height="180"><animate attributeName="width" from="0" to="600" dur="4.80s" fill="freeze" calcMode="spline" keySplines="0.25 0.1 0.25 1" keyTimes="0;1" repeatCount="indefinite"/></rect></clipPath></defs>

<g clip-path="url(#reveal)"><text x="300" y="94" font-family="'Dancing Script', cursive" font-size="60" fill="#111111" text-anchor="middle" dominant-baseline="middle" letter-spacing="1">Corgiking</text></g>
<g opacity="1"><animateTransform attributeName="transform" type="translate" from="0 0" to="600 0" dur="4.80s" fill="freeze" calcMode="spline" keySplines="0.25 0.1 0.25 1" keyTimes="0;1" repeatCount="indefinite"/><g transform="translate(0,68) rotate(22)"><rect x="-1.8" y="-28" width="3.6" height="26" rx="1.2" fill="#3a3a3a"/><polygon points="0,1 -2,-5 2,-5" fill="#111111"/></g><animate attributeName="opacity" values="1;1;0" keyTimes="0;0.92;1" dur="4.80s" fill="freeze" repeatCount="indefinite"/></g>
<path d="M 174 126 L 174.0 126.0 L 178.0 126.7 L 182.0 127.4 L 186.0 128.1 L 190.0 128.7 L 194.0 129.3 L 198.0 129.8 L 202.0 130.2 L 206.0 130.6 L 210.0 130.9 L 214.0 131.1 L 218.0 131.2 L 222.0 131.2 L 226.0 131.1 L 230.0 131.0 L 234.0 130.8 L 238.0 130.5 L 242.0 130.2 L 246.0 129.8 L 250.0 129.3 L 254.0 128.8 L 258.0 128.3 L 262.0 127.8 L 266.0 127.2 L 270.0 126.7 L 274.0 126.1 L 278.0 125.6 L 282.0 125.1 L 286.0 124.6 L 290.0 124.1 L 294.0 123.7 L 298.0 123.4 L 302.0 123.1 L 306.0 122.9 L 310.0 122.7 L 314.0 122.6 L 318.0 122.5 L 322.0 122.5 L 326.0 122.5 L 330.0 122.6 L 334.0 122.8 L 338.0 123.0 L 342.0 123.2 L 346.0 123.5 L 350.0 123.8 L 354.0 124.1 L 358.0 124.5 L 362.0 124.8 L 366.0 125.2 L 370.0 125.5 L 374.0 125.9 L 378.0 126.2 L 382.0 126.5 L 386.0 126.8 L 390.0 127.0 L 394.0 127.3 L 398.0 127.5 L 402.0 127.6 L 406.0 127.7 L 410.0 127.8 L 414.0 127.9 L 418.0 127.9 L 422.0 127.9 L 426.0 127.8" fill="none" stroke="#111111" stroke-width="1.4" stroke-linecap="round" opacity=".5" stroke-dasharray="265" stroke-dashoffset="265"><animate attributeName="stroke-dashoffset" from="265" to="0" begin="3.74s" dur="1.34s" fill="freeze" calcMode="spline" keySplines="0.4 0 0.2 1" keyTimes="0;1" repeatCount="indefinite"/></path>
</svg>